<svg width="673" height="673" viewBox="0 0 673 673" fill="none" xmlns="http://www.w3.org/2000/svg">
<path d="M663.523 130.076C658.19 65.399 606.611 13.8216 541.935 8.4883C404.655 -2.82943 267.375 -2.82943 130.082 8.4883C65.4043 13.8216 13.827 65.4003 8.4883 130.076C-2.82943 267.356 -2.82943 404.636 8.4883 541.93C13.8216 606.607 65.4003 658.184 130.082 663.518C267.362 674.835 404.642 674.835 541.935 663.518C606.612 658.184 658.19 606.606 663.523 541.93C674.841 404.65 674.841 267.356 663.523 130.076ZM162.243 502.116C155.608 508.762 146.883 512.085 138.18 512.085C129.472 512.085 120.759 508.762 114.118 502.116C100.821 488.819 100.821 467.267 114.118 453.98L232.102 335.996L114.112 218.018C100.815 204.726 100.815 183.179 114.112 169.882C127.388 156.6 148.946 156.6 162.243 169.882L304.296 311.935C310.682 318.32 314.265 326.971 314.265 335.998C314.265 345.024 310.671 353.68 304.296 360.06L162.243 502.116ZM533.83 483.538H356.563C337.771 483.538 322.532 468.298 322.532 449.507C322.532 430.716 337.772 415.476 356.563 415.476H533.83C552.622 415.476 567.86 430.716 567.86 449.507C567.871 468.299 552.631 483.538 533.83 483.538Z" fill="url(#paint0_linear_106_25)"/>
<defs>
<linearGradient id="paint0_linear_106_25" x1="0" y1="336" x2="725" y2="336" gradientUnits="userSpaceOnUse">
<stop stop-color="#7219E3"/>
<stop offset="1" stop-color="#1ADBB8"/>
</linearGradient>
</defs>
</svg>
